<?xml version="1.0" ?><!DOCTYPE svg  PUBLIC '-//W3C//DTD SVG 1.1//EN'  'http://www.w3.org/Graphics/SVG/1.1/DTD/svg11.dtd'><svg enable-background="new 0 0 48 48" height="48px" version="1.1" viewBox="0 0 48 48" width="48px" xml:space="preserve" xmlns="http://www.w3.org/2000/svg" xmlns:xlink="http://www.w3.org/1999/xlink"><g id="Layer_4"><path d="M37.209,14.518V0.057H10.792v14.461c0,6.273,4.375,11.515,10.237,12.861v15.756h-4.25   c-1.212,0-2.176,0.914-2.338,2.088h-0.032v0.158c-0.003,0.057-0.032,0.1-0.032,0.156v0.004c0,0.057,0.028,0.104,0.032,0.154v2.248   h2.37h14.442h2.402v-2.402v-0.004v-0.314h-0.064c-0.162-1.174-1.123-2.088-2.338-2.088h-4.25V27.379   C32.834,26.033,37.209,20.792,37.209,14.518z M14.394,11.889V4.884h19.262v7.005H14.394z" fill="#241F20"/></g></svg>